<svg width="20" height="20" viewBox="0.4666748046875 0.11407470703125 19.066650390625 19.7718505859375" fill="none" xmlns="http://www.w3.org/2000/svg">
<path d="M17.4238 19.6871L11.2871 13.3144C10.7392 13.7696 10.1091 14.1299 9.39678 14.3955C8.68448 14.661 7.92653 14.7938 7.12292 14.7938C5.13216 14.7938 3.44749 14.0776 2.06893 12.6453C0.690375 11.2129 0.000730556 9.46345 0 7.39688C0 5.32955 0.689645 3.58009 2.06893 2.14851C3.44822 0.716928 5.13289 0.000758654 7.12292 0C9.11369 0 10.7983 0.71617 12.1769 2.14851C13.5555 3.58085 14.2451 5.33031 14.2458 7.39688C14.2458 8.2314 14.118 9.0185 13.8623 9.75819C13.6066 10.4979 13.2596 11.1522 12.8213 11.7212L18.9853 18.1224C19.1862 18.331 19.2867 18.587 19.2867 18.8905C19.2867 19.194 19.1771 19.4595 18.9579 19.6871C18.757 19.8957 18.5013 20 18.1908 20C17.8804 20 17.6247 19.8957 17.4238 19.6871ZM7.12292 12.5178C8.49271 12.5178 9.65722 12.0197 10.6164 11.0236C11.5757 10.0275 12.0549 8.8186 12.0542 7.39688C12.0542 5.9744 11.5746 4.76511 10.6153 3.76899C9.65612 2.77288 8.49198 2.2752 7.12292 2.27596C5.75313 2.27596 4.58862 2.77402 3.6294 3.77013C2.67018 4.76625 2.19094 5.97516 2.19167 7.39688C2.19167 8.81936 2.67128 10.0287 3.6305 11.0248C4.58972 12.0209 5.75386 12.5186 7.12292 12.5178Z" fill="white"/>
</svg>
