<svg width="68" height="35" viewBox="0 0 68 35" fill="none" xmlns="http://www.w3.org/2000/svg">
<g filter="url(#filter0_i_272_3)">
<path d="M5.66667 0C4.16377 0 2.72243 0.614581 1.65973 1.70854C0.597022 2.80251 0 4.28624 0 5.83333L0 29.1667C0 30.7138 0.597022 32.1975 1.65973 33.2915C2.72243 34.3854 4.16377 35 5.66667 35H62.3333C63.8362 35 65.2776 34.3854 66.3403 33.2915C67.403 32.1975 68 30.7138 68 29.1667V5.83333C68 4.28624 67.403 2.80251 66.3403 1.70854C65.2776 0.614581 63.8362 0 62.3333 0M5.66667 5.83333H62.3333V29.1667H5.66667M8.5 8.75V13.125H17.7083L8.5 26.25H13.4583L22.6667 13.125V8.75M26.2083 8.75V13.125H30.4583V8.75M34 8.75V13.125H38.25V26.25H42.5V8.75M48.1667 8.75C47.4152 8.75 46.6945 9.05729 46.1632 9.60427C45.6318 10.1513 45.3333 10.8931 45.3333 11.6667V23.3333C45.3333 24.1069 45.6318 24.8487 46.1632 25.3957C46.6945 25.9427 47.4152 26.25 48.1667 26.25H56.6667C57.4181 26.25 58.1388 25.9427 58.6701 25.3957C59.2015 24.8487 59.5 24.1069 59.5 23.3333V11.6667C59.5 10.8931 59.2015 10.1513 58.6701 9.60427C58.1388 9.05729 57.4181 8.75 56.6667 8.75M49.5833 13.125H55.25V21.875H49.5833M26.2083 21.875V26.25H30.4583V21.875" fill="#89C3F9"/>
</g>
<defs>
<filter id="filter0_i_272_3" x="0" y="0" width="68" height="39" filterUnits="userSpaceOnUse" color-interpolation-filters="sRGB">
<feFlood flood-opacity="0" result="BackgroundImageFix"/>
<feBlend mode="normal" in="SourceGraphic" in2="BackgroundImageFix" result="shape"/>
<feColorMatrix in="SourceAlpha" type="matrix" values="0 0 0 0 0 0 0 0 0 0 0 0 0 0 0 0 0 0 127 0" result="hardAlpha"/>
<feOffset dy="4"/>
<feGaussianBlur stdDeviation="2"/>
<feComposite in2="hardAlpha" operator="arithmetic" k2="-1" k3="1"/>
<feColorMatrix type="matrix" values="0 0 0 0 0 0 0 0 0 0 0 0 0 0 0 0 0 0 0.25 0"/>
<feBlend mode="normal" in2="shape" result="effect1_innerShadow_272_3"/>
</filter>
</defs>
</svg>
